<svg width="26" height="15" viewBox="0 0 26 15" fill="none" xmlns="http://www.w3.org/2000/svg">
<path d="M0.292893 6.65685C-0.0976311 7.04738 -0.0976311 7.68054 0.292893 8.07107L6.65685 14.435C7.04738 14.8256 7.68054 14.8256 8.07107 14.435C8.46159 14.0445 8.46159 13.4113 8.07107 13.0208L2.41421 7.36396L8.07107 1.70711C8.46159 1.31658 8.46159 0.683417 8.07107 0.292892C7.68054 -0.0976319 7.04738 -0.0976319 6.65685 0.292892L0.292893 6.65685ZM25 8.36396C25.5523 8.36396 26 7.91625 26 7.36396C26 6.81168 25.5523 6.36396 25 6.36396V7.36396V8.36396ZM1 7.36396V8.36396H25V7.36396V6.36396H1V7.36396Z" fill="#111111"/>
</svg>
