<svg width="32" height="32" viewBox="0 0 32 32" fill="none" xmlns="http://www.w3.org/2000/svg">
<g clip-path="url(#clip0_127_1187)">
<path d="M23.9199 23.92C21.6407 25.6573 18.8654 26.6198 15.9999 26.6667C9.0867 26.6667 4.36804 20.8145 2.38578 17.7796C1.67504 16.6915 1.68027 15.3065 2.389 14.2171C3.91871 11.8656 5.84229 9.7887 8.07992 8.08001M13.1999 5.65335C14.1177 5.43852 15.0573 5.33113 15.9999 5.33335C22.9157 5.33335 27.6353 11.1898 29.6162 14.2237C30.3256 15.3101 30.3214 16.6923 29.6161 17.7813C29.0587 18.642 28.4477 19.4677 27.7866 20.2533M18.8266 18.8267C18.4604 19.2197 18.0188 19.5349 17.5281 19.7535C17.0375 19.9721 16.5078 20.0897 15.9707 20.0992C15.4336 20.1086 14.9001 20.0098 14.4021 19.8087C13.904 19.6075 13.4515 19.3081 13.0717 18.9282C12.6919 18.5484 12.3924 18.0959 12.1913 17.5979C11.9901 17.0998 11.8913 16.5663 11.9008 16.0292C11.9102 15.4921 12.0278 14.9625 12.2464 14.4718C12.465 13.9811 12.7803 13.5395 13.1733 13.1733" stroke="#B9B9B9" stroke-width="2.5" stroke-linecap="round" stroke-linejoin="round"/>
<path d="M1.33325 1.33331L30.6666 30.6666" stroke="#B9B9B9" stroke-width="2.66667" stroke-linecap="round" stroke-linejoin="round"/>
</g>
<defs>
<clipPath id="clip0_127_1187">
<rect width="32" height="32" fill="white"/>
</clipPath>
</defs>
</svg>
