<svg width="32" height="32" viewBox="0 0 32 32" fill="none" xmlns="http://www.w3.org/2000/svg">
<path d="M2.34709 17.7202C1.66145 16.6642 1.66145 15.3357 2.34709 14.2798C4.30619 11.2625 9.04132 5.33331 15.9999 5.33331C22.9585 5.33331 27.6936 11.2625 29.6527 14.2798C30.3384 15.3357 30.3384 16.6642 29.6527 17.7202C27.6936 20.7374 22.9585 26.6666 15.9999 26.6666C9.04132 26.6666 4.30619 20.7374 2.34709 17.7202Z" stroke="#B9B9B9" stroke-width="2.5" stroke-linecap="round" stroke-linejoin="round"/>
<path d="M16 20C18.2091 20 20 18.2091 20 16C20 13.7909 18.2091 12 16 12C13.7909 12 12 13.7909 12 16C12 18.2091 13.7909 20 16 20Z" stroke="#B9B9B9" stroke-width="2.5" stroke-linecap="round" stroke-linejoin="round"/>
</svg>
