<svg width="32" height="32" viewBox="0 0 32 32" fill="none" xmlns="http://www.w3.org/2000/svg">
<path d="M2.66669 13.3334L14.8107 3.74671C15.1495 3.47938 15.5685 3.33398 16 3.33398C16.4316 3.33398 16.8506 3.47938 17.1894 3.74671L22 7.54404V5.33337C22 4.97975 22.1405 4.64061 22.3905 4.39056C22.6406 4.14052 22.9797 4.00004 23.3334 4.00004H24.6667C25.0203 4.00004 25.3594 4.14052 25.6095 4.39056C25.8595 4.64061 26 4.97975 26 5.33337V10.7014L29.3334 13.3334M26.6667 15.3334V20.6667C26.6667 24.4374 26.6667 26.324 25.4947 27.4947C24.324 28.6667 22.4374 28.6667 18.6667 28.6667H13.3334C9.56269 28.6667 7.67602 28.6667 6.50535 27.4947C5.33335 26.324 5.33335 24.4374 5.33335 20.6667V15.3334" stroke="#B9B9B9" stroke-width="2.5" stroke-linecap="round" stroke-linejoin="round"/>
<path d="M20.0013 20.6667C18.9347 21.4961 17.5347 22.0001 16.0013 22.0001C14.468 22.0001 13.068 21.4961 12.0013 20.6667" stroke="#B9B9B9" stroke-width="2.5" stroke-linecap="round" stroke-linejoin="round"/>
</svg>
