<svg width="32" height="32" viewBox="0 0 32 32" fill="none" xmlns="http://www.w3.org/2000/svg">
<path d="M2.66663 13.3333L14.8106 3.74666C15.1494 3.47933 15.5684 3.33394 16 3.33394C16.4315 3.33394 16.8505 3.47933 17.1893 3.74666L22 7.54399V5.33333C22 4.97971 22.1404 4.64057 22.3905 4.39052C22.6405 4.14047 22.9797 3.99999 23.3333 3.99999H24.6666C25.0202 3.99999 25.3594 4.14047 25.6094 4.39052C25.8595 4.64057 26 4.97971 26 5.33333V10.7013L29.3333 13.3333M26.6673 11.2282L26.6666 20.6667C26.6666 24.4373 26.6666 26.324 25.4946 27.4947C24.324 28.6667 22.4373 28.6667 18.6666 28.6667H13.3333C9.56263 28.6667 7.67596 28.6667 6.50529 27.4947C5.33329 26.324 5.33329 24.4373 5.33329 20.6667L5.33329 11.2282" fill="#111111"/>
<path d="M2.66663 13.3333L14.8106 3.74666C15.1494 3.47933 15.5684 3.33394 16 3.33394C16.4315 3.33394 16.8505 3.47933 17.1893 3.74666L22 7.54399V5.33333C22 4.97971 22.1404 4.64057 22.3905 4.39052C22.6405 4.14047 22.9797 3.99999 23.3333 3.99999H24.6666C25.0202 3.99999 25.3594 4.14047 25.6094 4.39052C25.8595 4.64057 26 4.97971 26 5.33333V10.7013L29.3333 13.3333M26.6673 11.2282L26.6666 20.6667C26.6666 24.4373 26.6666 26.324 25.4946 27.4947C24.324 28.6667 22.4373 28.6667 18.6666 28.6667H13.3333C9.56263 28.6667 7.67596 28.6667 6.50529 27.4947C5.33329 26.324 5.33329 24.4373 5.33329 20.6667L5.33329 11.2282" stroke="#111111" stroke-width="2.5" stroke-linecap="round" stroke-linejoin="round"/>
<path d="M20.0012 20.6667C18.9346 21.496 17.5346 22 16.0012 22C14.4679 22 13.0679 21.496 12.0012 20.6667" stroke="white" stroke-width="2.5" stroke-linecap="round" stroke-linejoin="round"/>
</svg>
