<svg width="380" height="82" viewBox="0 0 380 82" fill="none" xmlns="http://www.w3.org/2000/svg">
<path d="M22.0558 50.7387C22.0558 69.1289 66.6644 59.9338 75.7353 56.8274V68.9425C60.2651 76.8329 0.994064 80.3743 0 50.7387C0.994064 21.1032 60.2651 24.6445 75.7353 32.5349V44.6501C66.6644 41.5436 22.0558 32.3485 22.0558 50.7387Z" fill="#111111"/>
<path d="M81.3016 28.9936H99.9403V44.5258H106.153C111.186 32.4107 131.191 26.9433 147.096 27.1297C165.486 26.8812 189.468 34.2745 189.344 50.7387C189.406 67.0787 165.362 74.5341 147.096 74.3477C131.067 74.5341 110.689 68.7561 105.967 56.3303H99.9403V72.4839H81.3016V28.9936ZM127.029 50.7387C127.029 58.1942 136.162 61.7356 147.096 61.7356C158.031 61.7356 167.288 58.1942 167.288 50.7387C167.288 43.2832 158.031 39.7419 147.096 39.7419C136.162 39.7419 127.029 43.2832 127.029 50.7387Z" fill="#111111"/>
<path d="M204.346 81.8032H188.814V60.0581H189.746C212.361 59.8717 212.174 51.1115 212.174 28.9936H270.886V60.0581H283.25V70.62L283.436 81.8032H267.842V72.4839H204.346V81.8032ZM252.248 60.0581V41.4194H227.707C227.707 49.5583 226.34 55.5848 223.855 60.0581H252.248Z" fill="#F9A35C"/>
<path d="M358.565 72.4839L349.619 56.9516H317.001L307.992 72.4839H286.558L311.596 28.9936H354.962L380 72.4839H358.565ZM324.146 44.5258H342.412L340.61 41.4194C340.61 41.4194 326.321 41.4194 325.948 41.4194L324.146 44.5258Z" fill="#F9A35C"/>
<path d="M334.965 0L323.316 22.004H342.731L353.086 0H334.965Z" fill="#F9A35C"/>
</svg>
