<svg width="32" height="32" viewBox="0 0 32 32" fill="none" xmlns="http://www.w3.org/2000/svg">
<path d="M22.2614 4C19.536 4 17.1827 5.596 16 7.924C14.8174 5.596 12.464 4 9.73869 4C5.83202 4 2.66669 7.276 2.66669 11.308C2.66669 15.34 5.08935 19.036 8.22002 22.072C11.3507 25.108 16 28 16 28C16 28 20.4987 25.156 23.78 22.072C27.28 18.784 29.3334 15.352 29.3334 11.308C29.3334 7.264 26.168 4 22.2614 4Z" stroke="#B9B9B9" stroke-width="2.5" stroke-linecap="round" stroke-linejoin="round"/>
<path d="M9.11938 12C9.0026 13.3461 9.34005 14.7953 10.1731 16.0826C11.0061 17.3699 12.1898 18.2715 13.4656 18.7164" stroke="#B9B9B9" stroke-width="2.5" stroke-linecap="round" stroke-linejoin="round"/>
</svg>
